<?xml version="1.0" encoding="UTF-8"?>
<svg version="1.1" xmlns="http://www.w3.org/2000/svg" width="512" height="512">
<path d="M0 0 C4.57511951 2.16716188 6.94129305 4.40932013 9 9 C9.36264405 12.61416638 9.28178217 16.18500048 9.1875 19.8125 C9.125625 23.174375 9.06375 26.53625 9 30 C19.23 30 29.46 30 40 30 C39.84252727 23.35845377 39.84252727 23.35845377 39.63964844 16.71826172 C39.57126853 10.98427558 39.95538121 7.41606337 44 3 C49.22259857 -1.05630398 54.65340142 -0.77397544 61 0 C65.57511951 2.16716188 67.94129305 4.40932013 70 9 C70.36264405 12.61416638 70.28178217 16.18500048 70.1875 19.8125 C70.125625 23.174375 70.06375 26.53625 70 30 C79.9 30 89.8 30 100 30 C99.84252727 23.35845377 99.84252727 23.35845377 99.63964844 16.71826172 C99.57126853 10.98427558 99.95538121 7.41606337 104 3 C109.22259857 -1.05630398 114.65340142 -0.77397544 121 0 C125.57511951 2.16716188 127.94129305 4.40932013 130 9 C130.36264405 12.61416638 130.28178217 16.18500048 130.1875 19.8125 C130.125625 23.174375 130.06375 26.53625 130 30 C140.23 30 150.46 30 161 30 C160.84252727 23.35845377 160.84252727 23.35845377 160.63964844 16.71826172 C160.57126853 10.98427558 160.95538121 7.41606337 165 3 C170.22259857 -1.05630398 175.65340142 -0.77397544 182 0 C186.57511951 2.16716188 188.94129305 4.40932013 191 9 C191.36264405 12.61416638 191.28178217 16.18500048 191.1875 19.8125 C191.125625 23.174375 191.06375 26.53625 191 30 C200.9 30 210.8 30 221 30 C220.84252727 23.35845377 220.84252727 23.35845377 220.63964844 16.71826172 C220.57126853 10.98427558 220.95538121 7.41606337 225 3 C230.22259857 -1.05630398 235.65340142 -0.77397544 242 0 C246.57511951 2.16716188 248.94129305 4.40932013 251 9 C251.36245433 12.61227562 251.2824631 16.18685763 251.1875 19.8125 C251.17396484 20.79154297 251.16042969 21.77058594 251.14648438 22.77929688 C251.11125312 25.18676625 251.06199265 27.59309564 251 30 C251.69448242 29.97381592 252.38896484 29.94763184 253.10449219 29.9206543 C278.57790648 29.08577223 278.57790648 29.08577223 288 35 C288.61359375 35.35707031 289.2271875 35.71414062 289.859375 36.08203125 C291.4375 37.0625 291.4375 37.0625 294 39 C294.804375 39.53625 295.60875 40.0725 296.4375 40.625 C305.73541053 49.24257561 310.97916418 60.81795052 311.62515259 73.3764801 C311.76391263 77.8556677 311.79933332 82.331441 311.8125 86.8125 C311.83569224 88.68036713 311.8610672 90.54820849 311.88867188 92.41601562 C311.95091694 96.94410694 311.98373001 101.47151971 312 106 C316.86172823 99.9168574 320.74682309 93.47590329 324.54837036 86.68521118 C326.29030258 83.57587974 328.05329516 80.47848626 329.8125 77.37890625 C330.16546646 76.75584091 330.51843292 76.13277557 330.88209534 75.49082947 C334.23502351 69.5742923 337.62756197 63.68185912 341.0625 57.8125 C341.56144775 56.94802246 342.06039551 56.08354492 342.57446289 55.19287109 C350.32558361 42.00184465 359.15876579 31.72198238 374.46875 27.62109375 C390.86880265 24.73657122 403.17784032 28.62125476 416.75 37.875 C424.82320732 45.4996958 430.74266179 55.97684614 431.3359375 67.19921875 C431.35953729 68.69518302 431.37241375 70.19135182 431.375 71.6875 C431.39949219 72.41388672 431.42398438 73.14027344 431.44921875 73.88867188 C431.50996145 85.54114609 426.01383809 95.47987989 420.3125 105.3125 C419.69616699 106.39394287 419.07983398 107.47538574 418.44482422 108.58959961 C413.74919876 116.79744505 408.9515398 124.94392335 404 133 C404.64066406 133.43570313 405.28132813 133.87140625 405.94140625 134.3203125 C418.93064017 143.26371946 427.57944394 151.93491647 431 168 C432.44110132 181.70516765 429.72357589 194.20215162 421 205 C416.78253405 210.00525676 412.33079647 214.7041501 407.625 219.25 C401.79937614 225.00433126 396.90948269 231.46640102 392 238 C391.360625 238.84433594 390.72125 239.68867188 390.0625 240.55859375 C372.70433347 264.38589179 363.99113926 291.73716433 360.51855469 320.75024414 C359.58361538 328.00773715 358.65474534 334.03669297 352.6875 338.875 C346.76602582 341.35375663 342.02184432 341.37534572 336.0859375 339.13671875 C332.51626389 337.19144717 330.65247223 334.66967931 329 331 C327.12586659 323.50346637 328.35424847 315.6298027 329 308 C328.35933594 309.03898437 327.71867187 310.07796875 327.05859375 311.1484375 C326.18504631 312.55738498 325.31133973 313.96623379 324.4375 315.375 C324.01919922 316.05433594 323.60089844 316.73367188 323.16992188 317.43359375 C322.74130859 318.12324219 322.31269531 318.81289063 321.87109375 319.5234375 C321.44542303 320.21427838 321.01975231 320.90511927 320.58118248 321.61689472 C319 324 319 324 317.21674538 326.13373852 C311.44951443 333.23688631 311.02630796 339.01774723 311.19287109 347.96411133 C311.19316928 349.34349335 311.19030684 350.72287908 311.18455505 352.10224915 C311.17872945 355.05455757 311.19451901 358.00564602 311.22751999 360.95777321 C311.27926139 365.63763512 311.27914767 370.31665916 311.27212524 374.99674988 C311.26545334 384.09249483 311.3105113 393.18762015 311.36136627 402.2831955 C311.42370988 413.84906927 311.46287448 425.41482503 311.45478308 436.98087329 C311.45324411 441.62077072 311.47707937 446.25960034 311.52166343 450.89927447 C311.54469464 453.80074465 311.54684232 456.7019803 311.54388618 459.60352898 C311.54815567 461.56316939 311.57741711 463.52270723 311.60780334 465.4821167 C311.5530236 478.17485553 307.39936154 489.39831049 299 499 C291.53893625 506.22084011 281.17129445 512.11171342 270.63558292 512.13701439 C269.51535679 512.14208893 268.39513065 512.14716347 267.24095827 512.15239179 C265.38701619 512.15313843 265.38701619 512.15313843 263.49562073 512.15390015 C262.18662038 512.1582824 260.87762004 512.16266465 259.52895302 512.1671797 C255.88759254 512.1791505 252.24624531 512.18479485 248.60486901 512.18936086 C244.68031133 512.19531524 240.75576952 512.20692571 236.83122253 512.21765137 C227.34772514 512.24218233 217.86422249 512.25680519 208.38070312 512.26971143 C205.70158958 512.27342339 203.02247655 512.27739664 200.34336352 512.2814641 C183.70377827 512.30670479 167.06419219 512.32875638 150.42459202 512.34119225 C146.56960103 512.34412192 142.71461007 512.34708358 138.85961914 512.35009766 C137.90148541 512.35084371 136.94335169 512.35158976 135.9561836 512.35235842 C120.44476146 512.36500436 104.93345415 512.39821637 89.42208565 512.43989949 C73.49327717 512.48235297 57.5645274 512.50589138 41.6356625 512.51111281 C32.69374733 512.51452347 23.75201147 512.52623751 14.81015205 512.55921555 C7.19231328 512.58726442 -0.42530944 512.59819432 -8.04319584 512.58702008 C-11.9273121 512.58184538 -15.81097628 512.58464189 -19.6950264 512.60948563 C-23.25785194 512.63208344 -26.81990342 512.63115811 -30.38274349 512.61228175 C-32.2676225 512.60818669 -34.152507 512.62854982 -36.03726763 512.65006864 C-46.57828802 512.55263098 -55.58883083 509.35966449 -64 503 C-64.804375 502.46375 -65.60875 501.9275 -66.4375 501.375 C-75.07903906 493.36576868 -80.91947444 481.92788514 -81.57049195 470.11539221 C-81.67541282 466.39519648 -81.66277666 462.68019093 -81.63491821 458.95898438 C-81.64068982 457.26585302 -81.64863788 455.57272794 -81.65855443 453.87961578 C-81.67930839 449.25926701 -81.66916509 444.63943869 -81.65362334 440.01908875 C-81.64226658 435.02375879 -81.65979393 430.0285156 -81.67352295 425.03320312 C-81.69571383 415.26012454 -81.69097266 405.48723835 -81.67645974 395.71415234 C-81.66515116 387.76881016 -81.66364361 379.82352175 -81.66907883 371.87817383 C-81.67022807 370.17959882 -81.67022807 370.17959882 -81.67140054 368.44670916 C-81.67299922 366.14603359 -81.67462029 363.84535804 -81.6762635 361.5446825 C-81.69050885 339.98957986 -81.6741473 318.43458367 -81.64726166 296.87949848 C-81.62492402 278.39877903 -81.62880449 259.91821662 -81.65185547 241.4375 C-81.67863489 219.95762295 -81.68913566 198.47783911 -81.67379415 176.99794769 C-81.67220147 174.7059072 -81.67062961 172.41386669 -81.66907883 170.12182617 C-81.66830745 168.99420506 -81.66753607 167.86658395 -81.66674132 166.7047925 C-81.66243076 158.77232907 -81.669697 150.83992495 -81.68147659 142.9074707 C-81.69552391 133.23564914 -81.69165466 123.56403038 -81.66507287 113.89223194 C-81.65196481 108.96091874 -81.64673089 104.02994324 -81.66331863 99.09863281 C-81.67829368 94.57826929 -81.66990629 90.05855428 -81.64343087 85.53824902 C-81.63787777 83.90921762 -81.6406145 82.28013065 -81.65280981 80.65113544 C-81.75154106 66.35892196 -78.63831229 54.01799006 -69 43 C-61.38202342 35.62729919 -50.96910213 29.84787258 -40.23828125 29.90234375 C-39.12001953 29.90556641 -38.00175781 29.90878906 -36.84960938 29.91210938 C-35.68236328 29.92048828 -34.51511719 29.92886719 -33.3125 29.9375 C-32.13365234 29.94201172 -30.95480469 29.94652344 -29.74023438 29.95117188 C-26.82677211 29.96296727 -23.91341137 29.9794273 -21 30 C-21.02094727 29.39526855 -21.04189453 28.79053711 -21.06347656 28.16748047 C-21.14708945 25.40349229 -21.19880054 22.63977087 -21.25 19.875 C-21.28351562 18.92367188 -21.31703125 17.97234375 -21.3515625 16.9921875 C-21.43267329 11.15221087 -21.12496676 7.50379023 -17 3 C-11.77740143 -1.05630398 -6.34659858 -0.77397544 0 0 Z M389 162 C386.23558703 168.87218089 383.47947527 175.74762779 380.73400784 182.62740135 C379.45900702 185.82162045 378.18114027 189.0146303 376.89672852 192.20507812 C375.42132309 195.87031035 373.9583715 199.54044696 372.49609375 203.2109375 C372.0315831 204.35992523 371.56707245 205.50891296 371.08848572 206.69271851 C370.6679744 207.7536673 370.24746307 208.81461609 369.81420898 209.90771484 C369.43892563 210.84481293 369.06364227 211.78191101 368.67698669 212.74740601 C367.71741909 215.00627399 367.71741909 215.00627399 369 217 C369.52207031 216.34515625 370.04414063 215.6903125 370.58203125 215.015625 C376.4521264 207.73711822 382.64192463 200.84945426 389 194 C390.69270742 192.17147356 392.38060461 190.33847634 394.0625 188.5 C394.77535156 187.7265625 395.48820312 186.953125 396.22265625 186.15625 C399.47033802 182.2162053 400.46137998 179.22316204 400.31640625 174.0234375 C399.59846508 169.43215942 396.69331318 166.62728336 393.375 163.625 C391.20451693 161.81177203 391.20451693 161.81177203 389 162 Z M367 217 C368 219 368 219 368 219 Z " fill="#FEC942" transform="translate(81,0)"/>
<path d="M0 0 C4.57511951 2.16716188 6.94129305 4.40932013 9 9 C9.36264405 12.61416638 9.28178217 16.18500048 9.1875 19.8125 C9.125625 23.174375 9.06375 26.53625 9 30 C19.23 30 29.46 30 40 30 C39.84252727 23.35845377 39.84252727 23.35845377 39.63964844 16.71826172 C39.57126853 10.98427558 39.95538121 7.41606337 44 3 C49.22259857 -1.05630398 54.65340142 -0.77397544 61 0 C65.57511951 2.16716188 67.94129305 4.40932013 70 9 C70.36264405 12.61416638 70.28178217 16.18500048 70.1875 19.8125 C70.125625 23.174375 70.06375 26.53625 70 30 C79.9 30 89.8 30 100 30 C99.84252727 23.35845377 99.84252727 23.35845377 99.63964844 16.71826172 C99.57126853 10.98427558 99.95538121 7.41606337 104 3 C109.22259857 -1.05630398 114.65340142 -0.77397544 121 0 C125.57511951 2.16716188 127.94129305 4.40932013 130 9 C130.36264405 12.61416638 130.28178217 16.18500048 130.1875 19.8125 C130.125625 23.174375 130.06375 26.53625 130 30 C140.23 30 150.46 30 161 30 C160.84252727 23.35845377 160.84252727 23.35845377 160.63964844 16.71826172 C160.57126853 10.98427558 160.95538121 7.41606337 165 3 C170.22259857 -1.05630398 175.65340142 -0.77397544 182 0 C186.57511951 2.16716188 188.94129305 4.40932013 191 9 C191.36264405 12.61416638 191.28178217 16.18500048 191.1875 19.8125 C191.125625 23.174375 191.06375 26.53625 191 30 C200.9 30 210.8 30 221 30 C220.84252727 23.35845377 220.84252727 23.35845377 220.63964844 16.71826172 C220.57126853 10.98427558 220.95538121 7.41606337 225 3 C230.22259857 -1.05630398 235.65340142 -0.77397544 242 0 C246.57511951 2.16716188 248.94129305 4.40932013 251 9 C251.36245433 12.61227562 251.2824631 16.18685763 251.1875 19.8125 C251.17396484 20.79154297 251.16042969 21.77058594 251.14648438 22.77929688 C251.11125312 25.18676625 251.06199265 27.59309564 251 30 C251.69448242 29.97381592 252.38896484 29.94763184 253.10449219 29.9206543 C278.57790648 29.08577223 278.57790648 29.08577223 288 35 C288.61359375 35.35707031 289.2271875 35.71414062 289.859375 36.08203125 C291.4375 37.0625 291.4375 37.0625 294 39 C294.804375 39.53625 295.60875 40.0725 296.4375 40.625 C305.73541053 49.24257561 310.97916418 60.81795052 311.62515259 73.3764801 C311.76391263 77.8556677 311.79933332 82.331441 311.8125 86.8125 C311.83569224 88.68036713 311.8610672 90.54820849 311.88867188 92.41601562 C311.95091694 96.94410694 311.98373001 101.47151971 312 106 C316.86172823 99.9168574 320.74682309 93.47590329 324.54837036 86.68521118 C326.29030258 83.57587974 328.05329516 80.47848626 329.8125 77.37890625 C330.16546646 76.75584091 330.51843292 76.13277557 330.88209534 75.49082947 C334.23502351 69.5742923 337.62756197 63.68185912 341.0625 57.8125 C341.56144775 56.94802246 342.06039551 56.08354492 342.57446289 55.19287109 C350.32558361 42.00184465 359.15876579 31.72198238 374.46875 27.62109375 C390.86880265 24.73657122 403.17784032 28.62125476 416.75 37.875 C424.82320732 45.4996958 430.74266179 55.97684614 431.3359375 67.19921875 C431.35953729 68.69518302 431.37241375 70.19135182 431.375 71.6875 C431.39949219 72.41388672 431.42398438 73.14027344 431.44921875 73.88867188 C431.50996145 85.54114609 426.01383809 95.47987989 420.3125 105.3125 C419.69616699 106.39394287 419.07983398 107.47538574 418.44482422 108.58959961 C413.74919876 116.79744505 408.9515398 124.94392335 404 133 C404.64066406 133.43570313 405.28132813 133.87140625 405.94140625 134.3203125 C418.93064017 143.26371946 427.57944394 151.93491647 431 168 C432.44110132 181.70516765 429.72357589 194.20215162 421 205 C416.78253405 210.00525676 412.33079647 214.7041501 407.625 219.25 C401.79937614 225.00433126 396.90948269 231.46640102 392 238 C391.360625 238.84433594 390.72125 239.68867188 390.0625 240.55859375 C372.70433347 264.38589179 363.99113926 291.73716433 360.51855469 320.75024414 C359.58361538 328.00773715 358.65474534 334.03669297 352.6875 338.875 C346.76602582 341.35375663 342.02184432 341.37534572 336.0859375 339.13671875 C332.51626389 337.19144717 330.65247223 334.66967931 329 331 C327.12586659 323.50346637 328.35424847 315.6298027 329 308 C328.35933594 309.03898437 327.71867187 310.07796875 327.05859375 311.1484375 C314.22070571 331.8877133 314.22070571 331.8877133 307 339 C305.38775288 340.76347969 303.78411328 342.5348534 302.1875 344.3125 C274.80611226 374.34293099 274.80611226 374.34293099 262 380 C261.97421875 378.83984375 261.9484375 377.6796875 261.921875 376.484375 C261.41623889 360.67221766 258.29151529 346.54390534 246.3125 335.1875 C233.48730015 324.82772692 218.9327371 322.59095847 203 324 C195.02648735 325.6646954 187.98742735 329.94539999 181 334 C182.5451772 315.66118634 186.03584487 298.4118375 192 281 C192.21350098 280.3694873 192.42700195 279.73897461 192.64697266 279.08935547 C202.31272477 250.91502352 217.7214798 227.28725936 236 204 C237.02625961 202.6850659 238.05232147 201.36997742 239.078125 200.0546875 C241.2777223 197.24124909 243.48900759 194.43729335 245.70556641 191.63720703 C247.97745795 188.76370557 250.23795219 185.88125202 252.5 183 C253.4166164 181.83329384 254.33328297 180.66662709 255.25 179.5 C255.70375 178.9225 256.1575 178.345 256.625 177.75 C271.75 158.5 271.75 158.5 273.12548828 156.74951172 C274.04069993 155.58460823 274.95573944 154.41956947 275.87060547 153.25439453 C278.18313021 150.30960955 280.49874234 147.36734815 282.8203125 144.4296875 C283.52510742 143.53636719 283.52510742 143.53636719 284.24414062 142.625 C285.52900775 140.99665354 286.81523059 139.36937708 288.1015625 137.7421875 C292.12931807 132.54193165 296.05341017 127.26211977 300 122 C174.27 121.67 48.54 121.34 -81 121 C-81 56.71774194 -81 56.71774194 -69 43 C-61.38202342 35.62729919 -50.96910213 29.84787258 -40.23828125 29.90234375 C-39.12001953 29.90556641 -38.00175781 29.90878906 -36.84960938 29.91210938 C-35.68236328 29.92048828 -34.51511719 29.92886719 -33.3125 29.9375 C-32.13365234 29.94201172 -30.95480469 29.94652344 -29.74023438 29.95117188 C-26.82677211 29.96296727 -23.91341137 29.9794273 -21 30 C-21.02094727 29.39526855 -21.04189453 28.79053711 -21.06347656 28.16748047 C-21.14708945 25.40349229 -21.19880054 22.63977087 -21.25 19.875 C-21.28351562 18.92367188 -21.31703125 17.97234375 -21.3515625 16.9921875 C-21.43267329 11.15221087 -21.12496676 7.50379023 -17 3 C-11.77740143 -1.05630398 -6.34659858 -0.77397544 0 0 Z M389 162 C386.23558703 168.87218089 383.47947527 175.74762779 380.73400784 182.62740135 C379.45900702 185.82162045 378.18114027 189.0146303 376.89672852 192.20507812 C375.42132309 195.87031035 373.9583715 199.54044696 372.49609375 203.2109375 C372.0315831 204.35992523 371.56707245 205.50891296 371.08848572 206.69271851 C370.6679744 207.7536673 370.24746307 208.81461609 369.81420898 209.90771484 C369.43892563 210.84481293 369.06364227 211.78191101 368.67698669 212.74740601 C367.71741909 215.00627399 367.71741909 215.00627399 369 217 C369.52207031 216.34515625 370.04414063 215.6903125 370.58203125 215.015625 C376.4521264 207.73711822 382.64192463 200.84945426 389 194 C390.69270742 192.17147356 392.38060461 190.33847634 394.0625 188.5 C394.77535156 187.7265625 395.48820312 186.953125 396.22265625 186.15625 C399.47033802 182.2162053 400.46137998 179.22316204 400.31640625 174.0234375 C399.59846508 169.43215942 396.69331318 166.62728336 393.375 163.625 C391.20451693 161.81177203 391.20451693 161.81177203 389 162 Z M367 217 C368 219 368 219 368 219 Z " fill="#B12E65" transform="translate(81,0)"/>
<path d="M0 0 C61.38 0 122.76 0 186 0 C183.21121574 4.88037245 181.11196255 8.29281879 177.5625 12.375 C173.42860947 17.20760917 169.52296424 22.17784588 165.6875 27.25 C161.32978904 33.00315773 156.8859632 38.66674098 152.3125 44.25 C147.58222081 50.02528367 142.97402769 55.8745095 138.4453125 61.80859375 C135.91140445 65.1263213 133.33361657 68.40841993 130.75 71.6875 C130.29923096 72.26161621 129.84846191 72.83573242 129.3840332 73.42724609 C126.80503111 76.71189618 124.21465679 79.98694295 121.61328125 83.25390625 C91.87843212 120.78360718 70.58496264 163.60300438 67 212 C67.92941406 211.44570313 68.85882813 210.89140625 69.81640625 210.3203125 C71.06486499 209.58813369 72.31357652 208.85638579 73.5625 208.125 C74.17158203 207.76019531 74.78066406 207.39539063 75.40820312 207.01953125 C86.2154818 200.7295807 98.6206064 200.53929151 110.7421875 202.65234375 C123.49981115 206.21652398 134.02380628 213.49946418 140.75390625 224.99609375 C145.02591717 233.24158953 147.24481204 240.69418028 147.625 249.9375 C147.66367187 250.71673828 147.70234375 251.49597656 147.7421875 252.29882812 C147.83544127 254.19887379 147.91875962 256.09940278 148 258 C156.96699121 251.6019306 165.08621348 244.65065147 173 237 C173.63437988 236.38753418 174.26875977 235.77506836 174.92236328 235.14404297 C185.03379304 225.35059276 185.03379304 225.35059276 193.8984375 214.44140625 C194.26195312 213.96574219 194.62546875 213.49007812 195 213 C195.33 213 195.66 213 196 213 C196.11710491 231.28991601 196.20512056 249.57973394 196.25906086 267.86994457 C196.28477853 276.36353825 196.31980488 284.8568982 196.37719727 293.3503418 C196.42723054 300.75828621 196.45933774 308.16606123 196.47044247 315.57416993 C196.47692779 319.49222285 196.49203312 323.40979144 196.52865028 327.32768822 C196.56292615 331.02550181 196.57299049 334.72263779 196.56553841 338.42059517 C196.56754128 340.40416295 196.59426942 342.38765919 196.62210083 344.37103271 C196.54988133 357.11293421 192.43641534 368.35595262 184 378 C176.07495763 385.66988002 165.62187694 391.12888862 154.52705383 391.12025452 C153.53703103 391.12153615 153.53703103 391.12153615 152.52700776 391.12284368 C150.31135337 391.12449321 148.09577439 391.11898573 145.88012695 391.11352539 C144.29349774 391.11324338 142.7068684 391.11340153 141.12023926 391.1139679 C136.80855956 391.11425533 132.49690756 391.10836735 128.18523431 391.10139394 C123.68087927 391.09515138 119.17652362 391.09455588 114.67216492 391.09336853 C106.14055216 391.09025788 97.60895219 391.08204807 89.07734507 391.07201904 C77.54997158 391.05876199 66.02259461 391.05335584 54.49521542 391.04751682 C36.33013403 391.03810802 18.16507963 391.01818731 0 391 C0 360.97 0 330.94 0 300 C-13.41333984 300.06960938 -13.41333984 300.06960938 -27.09765625 300.140625 C-33.48280775 300.16366212 -39.86792802 300.18416706 -46.25309467 300.20101547 C-54.52421061 300.22317756 -62.79516513 300.25130982 -71.06616211 300.30175781 C-77.61486296 300.34168175 -84.16344197 300.36744607 -90.71226114 300.37635398 C-94.17846064 300.38155942 -97.64431166 300.3937553 -101.11039925 300.42292023 C-104.98390255 300.4552476 -108.85706787 300.45595584 -112.73071289 300.45410156 C-113.87438828 300.46848267 -115.01806366 300.48286377 -116.19639587 300.49768066 C-122.70125507 300.46398153 -126.70787933 299.87789303 -132 296 C-134.96026488 292.8839317 -136.24400188 289.26113006 -136.5 285 C-136.24400188 280.73886994 -134.96026488 277.1160683 -132 274 C-93.77976551 252.159866 -44.02019738 270 0 270 C0 180.9 0 91.8 0 0 Z " fill="#FEAE3E" transform="translate(196,121)"/>
<path d="M0 0 C4.57511951 2.16716188 6.94129305 4.40932013 9 9 C9.36264405 12.61416638 9.28178217 16.18500048 9.1875 19.8125 C9.125625 23.174375 9.06375 26.53625 9 30 C19.23 30 29.46 30 40 30 C39.84252727 23.35845377 39.84252727 23.35845377 39.63964844 16.71826172 C39.57126853 10.98427558 39.95538121 7.41606337 44 3 C49.22259857 -1.05630398 54.65340142 -0.77397544 61 0 C65.57511951 2.16716188 67.94129305 4.40932013 70 9 C70.36264405 12.61416638 70.28178217 16.18500048 70.1875 19.8125 C70.125625 23.174375 70.06375 26.53625 70 30 C79.9 30 89.8 30 100 30 C99.84252727 23.35845377 99.84252727 23.35845377 99.63964844 16.71826172 C99.57126853 10.98427558 99.95538121 7.41606337 104 3 C109.22259857 -1.05630398 114.65340142 -0.77397544 121 0 C125.57511951 2.16716188 127.94129305 4.40932013 130 9 C130.36264405 12.61416638 130.28178217 16.18500048 130.1875 19.8125 C130.125625 23.174375 130.06375 26.53625 130 30 C140.23 30 150.46 30 161 30 C160.84252727 23.35845377 160.84252727 23.35845377 160.63964844 16.71826172 C160.57126853 10.98427558 160.95538121 7.41606337 165 3 C170.22259857 -1.05630398 175.65340142 -0.77397544 182 0 C186.57511951 2.16716188 188.94129305 4.40932013 191 9 C191.36264405 12.61416638 191.28178217 16.18500048 191.1875 19.8125 C191.125625 23.174375 191.06375 26.53625 191 30 C200.9 30 210.8 30 221 30 C220.84252727 23.35845377 220.84252727 23.35845377 220.63964844 16.71826172 C220.57126853 10.98427558 220.95538121 7.41606337 225 3 C230.22259857 -1.05630398 235.65340142 -0.77397544 242 0 C246.57511951 2.16716188 248.94129305 4.40932013 251 9 C251.36245433 12.61227562 251.2824631 16.18685763 251.1875 19.8125 C251.17396484 20.79154297 251.16042969 21.77058594 251.14648438 22.77929688 C251.11125312 25.18676625 251.06199265 27.59309564 251 30 C251.69448242 29.97381592 252.38896484 29.94763184 253.10449219 29.9206543 C278.57790648 29.08577223 278.57790648 29.08577223 288 35 C288.61359375 35.35707031 289.2271875 35.71414062 289.859375 36.08203125 C291.4375 37.0625 291.4375 37.0625 294 39 C294.804375 39.53625 295.60875 40.0725 296.4375 40.625 C305.88312111 49.3794781 310.95389378 60.99411396 311.70367432 73.70707703 C311.84159288 77.53106721 311.88114944 81.34896883 311.87158203 85.17529297 C311.87500467 88.1290316 311.95331983 91.07486214 312.03515625 94.02734375 C312.04622781 95.93747901 312.05288836 97.847646 312.0546875 99.7578125 C312.0854538 100.62270294 312.11622009 101.48759338 312.1479187 102.37869263 C312.02168302 109.22280467 309.31091796 113.50908162 304.92232239 118.64129794 C299.40637121 123.0934027 293.10949072 122.47447604 286.37754822 122.32279968 C284.78996106 122.32760129 283.20238245 122.33724155 281.6148501 122.35128051 C277.26725556 122.37581011 272.92265716 122.33198497 268.57544434 122.27672184 C263.88231063 122.22912831 259.18933993 122.24530002 254.49603271 122.25364685 C246.36974624 122.25940924 238.24443276 122.22495735 230.11839104 122.16303062 C218.36973835 122.07355518 206.62155519 122.04497706 194.87259872 122.03116272 C175.8100629 122.00709973 156.74804545 121.93392851 137.68579102 121.82983398 C119.17084341 121.72883343 100.65603669 121.65098632 82.14086914 121.60424805 C80.99921435 121.60135809 79.85755955 121.59846813 78.68130916 121.5954906 C72.95384646 121.58113497 67.22638277 121.56723424 61.49891841 121.55355966 C13.99892072 121.43956296 -33.50051433 121.2458513 -81 121 C-81.12772884 113.40537665 -81.21473821 105.81103455 -81.2746582 98.21557617 C-81.29966143 95.63669483 -81.3336753 93.05788334 -81.37719727 90.47924805 C-81.43847376 86.75291618 -81.46635342 83.02752848 -81.48828125 79.30078125 C-81.51408768 78.1648201 -81.5398941 77.02885895 -81.56648254 75.85847473 C-81.57073344 63.47504117 -77.16721118 52.33630795 -69 43 C-61.38202342 35.62729919 -50.96910213 29.84787258 -40.23828125 29.90234375 C-39.12001953 29.90556641 -38.00175781 29.90878906 -36.84960938 29.91210938 C-35.68236328 29.92048828 -34.51511719 29.92886719 -33.3125 29.9375 C-32.13365234 29.94201172 -30.95480469 29.94652344 -29.74023438 29.95117188 C-26.82677211 29.96296727 -23.91341137 29.9794273 -21 30 C-21.02094727 29.39526855 -21.04189453 28.79053711 -21.06347656 28.16748047 C-21.14708945 25.40349229 -21.19880054 22.63977087 -21.25 19.875 C-21.28351562 18.92367188 -21.31703125 17.97234375 -21.3515625 16.9921875 C-21.43267329 11.15221087 -21.12496676 7.50379023 -17 3 C-11.77740143 -1.05630398 -6.34659858 -0.77397544 0 0 Z " fill="#4D5A68" transform="translate(81,0)"/>
<path d="M0 0 C4.57511951 2.16716188 6.94129305 4.40932013 9 9 C9.36264405 12.61416638 9.28178217 16.18500048 9.1875 19.8125 C9.125625 23.174375 9.06375 26.53625 9 30 C18.9 30 28.8 30 39 30 C38.84252727 23.35845377 38.84252727 23.35845377 38.63964844 16.71826172 C38.57126853 10.98427558 38.95538121 7.41606337 43 3 C48.22259857 -1.05630398 53.65340142 -0.77397544 60 0 C64.57511951 2.16716188 66.94129305 4.40932013 69 9 C69.36245433 12.61227562 69.2824631 16.18685763 69.1875 19.8125 C69.17396484 20.79154297 69.16042969 21.77058594 69.14648438 22.77929688 C69.11125312 25.18676625 69.06199265 27.59309564 69 30 C69.69448242 29.97381592 70.38896484 29.94763184 71.10449219 29.9206543 C96.57790648 29.08577223 96.57790648 29.08577223 106 35 C106.61359375 35.35707031 107.2271875 35.71414062 107.859375 36.08203125 C109.4375 37.0625 109.4375 37.0625 112 39 C112.804375 39.53625 113.60875 40.0725 114.4375 40.625 C123.88312111 49.3794781 128.95389378 60.99411396 129.70367432 73.70707703 C129.84159288 77.53106721 129.88114944 81.34896883 129.87158203 85.17529297 C129.87500467 88.1290316 129.95331983 91.07486214 130.03515625 94.02734375 C130.04622781 95.93747901 130.05288836 97.847646 130.0546875 99.7578125 C130.0854538 100.62270294 130.11622009 101.48759338 130.1479187 102.37869263 C130.02313956 109.14383536 127.43052648 113.56303165 123.0807991 118.64582062 C116.86702097 123.39405245 109.28007892 122.4251401 101.81225586 122.2487793 C99.96858914 122.24567318 98.12490883 122.24742461 96.28125 122.25364685 C91.29520131 122.25679374 86.31208363 122.19228565 81.32671428 122.11533332 C76.10985362 122.04640726 70.89292017 122.0400948 65.67567444 122.02705383 C55.80489831 121.99291093 45.93546783 121.90270919 36.06528336 121.79220945 C24.82485036 121.66911039 13.58435191 121.60874074 2.34341228 121.55355966 C-20.77182889 121.43868706 -43.88578212 121.24307442 -67 121 C-67 111.1 -67 101.2 -67 91 C-64.03 90.01 -61.06 89.02 -58 88 C-53.97850281 83.97850281 -52.89298233 80.64485492 -52.79467773 75.06958008 C-52.77473251 74.06876907 -52.75478729 73.06795807 -52.73423767 72.03681946 C-52.70916893 70.4195118 -52.70916893 70.4195118 -52.68359375 68.76953125 C-52.66281265 67.66397385 -52.64203156 66.55841644 -52.62062073 65.4193573 C-52.55517668 61.8838021 -52.49626397 58.34817194 -52.4375 54.8125 C-52.3943099 52.41730992 -52.35069546 50.02212745 -52.30664062 47.62695312 C-52.19870111 41.75137783 -52.09958892 35.87574656 -52 30 C-41.77 30 -31.54 30 -21 30 C-21.15747273 23.35845377 -21.15747273 23.35845377 -21.36035156 16.71826172 C-21.42873147 10.98427558 -21.04461879 7.41606337 -17 3 C-11.77740143 -1.05630398 -6.34659858 -0.77397544 0 0 Z " fill="#304653" transform="translate(263,0)"/>
<path d="M0 0 C4.0358161 0.5889076 6.88921159 1.87471846 10.38671875 3.94921875 C11.40830078 4.55056641 12.42988281 5.15191406 13.48242188 5.77148438 C15.06893555 6.71991211 15.06893555 6.71991211 16.6875 7.6875 C17.72583984 8.30044922 18.76417969 8.91339844 19.83398438 9.54492188 C21.89597563 10.76401764 23.95447602 11.98903901 26.00927734 13.22021484 C27.98328355 14.39494996 29.96794035 15.55199235 31.96337891 16.68994141 C32.86878418 17.21120605 33.77418945 17.7324707 34.70703125 18.26953125 C35.91516479 18.95366089 35.91516479 18.95366089 37.14770508 19.65161133 C39 21 39 21 40 24 C38.97460938 26.31469727 38.97460938 26.31469727 37.34375 29.06640625 C36.43979492 30.61038086 36.43979492 30.61038086 35.51757812 32.18554688 C34.85177734 33.29994141 34.18597656 34.41433594 33.5 35.5625 C32.81077106 36.73308997 32.12263643 37.90432489 31.43554688 39.07617188 C30.00554538 41.51311 28.57084656 43.94718843 27.1328125 46.37939453 C23.87755925 51.8939538 20.69220639 57.44879714 17.5 63 C16.25033409 65.16685938 15.00033285 67.3335254 13.75 69.5 C12.821875 71.10875 12.821875 71.10875 11.875 72.75 C-10 110.66666667 -31.875 148.58333333 -53.75 186.5 C-54.36955566 187.5739502 -54.98911133 188.64790039 -55.62744141 189.75439453 C-56.86911527 191.9065213 -58.11097522 194.05854073 -59.35302734 196.21044922 C-62.26166823 201.25030977 -65.16851898 206.29117492 -68.06854248 211.33599854 C-69.09275665 213.11749578 -70.11757651 214.89864322 -71.14257812 216.6796875 C-72.42633375 218.91076625 -73.70895939 221.14249573 -74.99023438 223.375 C-78.22201335 228.98865365 -81.52571298 234.53291438 -85 240 C-85.73605469 239.72285156 -86.47210938 239.44570313 -87.23046875 239.16015625 C-88.20628906 238.79792969 -89.18210937 238.43570313 -90.1875 238.0625 C-91.15042969 237.70285156 -92.11335938 237.34320313 -93.10546875 236.97265625 C-103.86214224 233.35806556 -118.0439205 233.15280204 -128.48828125 237.7109375 C-133.04744068 240.05078604 -137.56690106 242.42760216 -142 245 C-140.4548228 226.66118634 -136.96415513 209.4118375 -131 192 C-130.78649902 191.3694873 -130.57299805 190.73897461 -130.35302734 190.08935547 C-120.68727523 161.91502352 -105.2785202 138.28725936 -87 115 C-85.97374039 113.6850659 -84.94767853 112.36997742 -83.921875 111.0546875 C-81.7222777 108.24124909 -79.51099241 105.43729335 -77.29443359 102.63720703 C-75.02254205 99.76370557 -72.76204781 96.88125202 -70.5 94 C-69.5833836 92.83329384 -68.66671703 91.66662709 -67.75 90.5 C-67.29625 89.9225 -66.8425 89.345 -66.375 88.75 C-57.66666667 77.66666667 -48.95833333 66.58333333 -40.25 55.5 C-39.7960083 54.92217773 -39.3420166 54.34435547 -38.87426758 53.74902344 C-37.96009985 52.58556677 -37.04587484 51.42215511 -36.1315918 50.25878906 C-33.801213 47.29338101 -31.47191885 44.32713143 -29.14453125 41.359375 C-28.20053786 40.15623664 -27.25652763 38.95311149 -26.3125 37.75 C-25.85681641 37.16871338 -25.40113281 36.58742676 -24.93164062 35.98852539 C-21.55155046 31.68331286 -18.12198468 27.42030754 -14.65625 23.18359375 C-12.90728555 20.87776561 -11.46407777 18.49478853 -10 16 C-9.02981898 14.53567345 -8.05073319 13.07720475 -7.0625 11.625 C-4.5188279 7.8380368 -2.20778828 3.99100189 0 0 Z " fill="#E8336C" transform="translate(404,89)"/>
<path d="M0 0 C8.07320732 7.6246958 13.99266179 18.10184614 14.5859375 29.32421875 C14.60953729 30.82018302 14.62241375 32.31635182 14.625 33.8125 C14.64949219 34.53888672 14.67398438 35.26527344 14.69921875 36.01367188 C14.75996145 47.66614609 9.26383809 57.60487989 3.5625 67.4375 C2.94616699 68.51894287 2.32983398 69.60038574 1.69482422 70.71459961 C-3.00080124 78.92244505 -7.7984602 87.06892335 -12.75 95.125 C-12.10933594 95.56070313 -11.46867187 95.99640625 -10.80859375 96.4453125 C2.18064017 105.38871946 10.82944394 114.05991647 14.25 130.125 C15.69110132 143.83016765 12.97357589 156.32715162 4.25 167.125 C0.03253405 172.13025676 -4.41920353 176.8291501 -9.125 181.375 C-14.95062386 187.12933126 -19.84051731 193.59140102 -24.75 200.125 C-25.389375 200.96933594 -26.02875 201.81367188 -26.6875 202.68359375 C-44.04566653 226.51089179 -52.75886074 253.86216433 -56.23144531 282.87524414 C-57.16638462 290.13273715 -58.09525466 296.16169297 -64.0625 301 C-69.98397418 303.47875663 -74.72815568 303.50034572 -80.6640625 301.26171875 C-84.16877733 299.35184606 -86.28478886 296.82073344 -87.75 293.125 C-90.19642212 279.97371346 -87.45639294 266.48572034 -81.34375 254.73828125 C-77.14880287 246.30381583 -73.45862654 237.74892594 -69.98828125 228.9921875 C-69.50284348 227.77071518 -69.0174057 226.54924286 -68.51725769 225.29075623 C-66.51820769 220.24988923 -64.53378745 215.20331236 -62.55541992 210.15429688 C-61.56260289 207.62218952 -60.56360108 205.09267472 -59.55839539 202.56546021 C-58.62689731 200.22189771 -57.70448262 197.87469433 -56.79328918 195.52316284 C-52.58155713 184.9604346 -46.88842758 175.89807291 -39.3125 167.4375 C-38.46836548 166.47734985 -38.46836548 166.47734985 -37.60717773 165.49780273 C-34.0409097 161.47289021 -30.33247957 157.64328531 -26.46875 153.90234375 C-21.35195744 148.61111508 -17.35917838 143.77919144 -17.46875 136.21875 C-18.0986639 131.52939098 -21.06200981 128.71917335 -24.5 125.75 C-25.2425 125.21375 -25.985 124.6775 -26.75 124.125 C-25.53346429 115.21255363 -21.8013098 107.09072018 -16.66796875 99.74609375 C-15.50362599 98.00040694 -15.50362599 98.00040694 -15.75 95.125 C-19.89467193 92.74797036 -24.04061487 90.37316608 -28.1875 88 C-28.81813354 87.63908264 -29.44876709 87.27816528 -30.09851074 86.90631104 C-38.87165765 81.88773837 -47.67021635 76.91846211 -56.5 72 C-68.68278281 65.21023875 -80.73000915 58.19825857 -92.75 51.125 C-91.27325103 47.15115263 -89.40281452 43.57733977 -87.30078125 39.8984375 C-86.96507614 39.31011139 -86.62937103 38.72178528 -86.28349304 38.1156311 C-85.57313322 36.8725759 -84.86117198 35.63043463 -84.14770508 34.38916016 C-83.07907596 32.52885597 -82.01669406 30.66509445 -80.95507812 28.80078125 C-61.68821033 -4.91265963 -61.68821033 -4.91265963 -42.31640625 -10.21875 C-25.94426309 -13.2313678 -13.5402597 -9.23199525 0 0 Z " fill="#304653" transform="translate(497.75,37.875)"/>
<path d="M0 0 C11.21634297 7.69493297 18.02845096 18.6220847 21.1875 31.8125 C22.3245978 38.96840161 23.56279935 47.48708092 19.17578125 53.62890625 C16.59643818 55.58229996 13.99661753 57.22891842 11.14208984 58.75048828 C7.54265419 60.70621462 4.13742124 62.9821215 0.6875 65.1875 C-0.93431789 66.21055219 -2.5567477 67.23263476 -4.1796875 68.25390625 C-5.06237305 68.81223145 -5.94505859 69.37055664 -6.85449219 69.94580078 C-8.98693635 71.29151455 -11.12301029 72.63027964 -13.26269531 73.96435547 C-33.67310677 86.40966391 -33.67310677 86.40966391 -46.8125 105.8125 C-53.74827119 118.25476198 -53.74827119 118.25476198 -60.8125 120.8125 C-65.6936417 121.69840116 -69.47953788 121.43066518 -73.6875 118.6875 C-77.86423634 115.23757393 -79.59789109 111.77974834 -80.1875 106.375 C-79.59115919 100.70976232 -77.27500917 96.39114846 -74.18359375 91.7109375 C-66.97572618 80.75244673 -64.27412562 72.08672686 -63.921875 59.06005859 C-63.79423468 55.27016669 -63.56098082 51.49044981 -63.3125 47.70703125 C-62.94675556 42.09085476 -62.59826254 36.47438808 -62.27734375 30.85546875 C-62.19983887 29.5411084 -62.12233398 28.22674805 -62.04248047 26.87255859 C-61.87779088 24.04281353 -61.7349629 21.21275503 -61.60205078 18.38134766 C-61.52772495 16.93782265 -61.45334511 15.49430043 -61.37890625 14.05078125 C-61.31775635 12.75825439 -61.25660645 11.46572754 -61.19360352 10.1340332 C-60.84378173 7.08513804 -60.53100124 5.31236976 -58.8125 2.8125 C-56.59431924 1.28768054 -54.47268261 -0.02750411 -52.125 -1.3125 C-51.52494141 -1.65925781 -50.92488281 -2.00601562 -50.30664062 -2.36328125 C-34.76416243 -11.07775345 -14.97406701 -8.80827471 0 0 Z " fill="#ADB5CB" transform="translate(321.8125,330.1875)"/>
<path d="M0 0 C1.24798874 -0.00700928 2.49597748 -0.01401855 3.78178406 -0.02124023 C7.18909985 -0.03578682 10.59543872 -0.03243742 14.0026989 -0.01972389 C17.57753636 -0.00955785 21.15233365 -0.01899953 24.72717285 -0.02526855 C30.72916103 -0.03253454 36.73095197 -0.02298501 42.73291016 -0.00390625 C49.66029178 0.01786068 56.58720241 0.01080855 63.51457262 -0.01121187 C69.47489961 -0.02939599 75.43508526 -0.03190956 81.39543104 -0.0214572 C84.94975975 -0.01523871 88.50386747 -0.01434091 92.05818176 -0.02760315 C96.02204528 -0.04136188 99.98538625 -0.0222627 103.94921875 0 C105.11929977 -0.00809692 106.2893808 -0.01619385 107.49491882 -0.02453613 C114.04639412 0.04357506 118.14895159 0.60042367 123.47460938 4.51757812 C126.43487426 7.63364642 127.71861125 11.25644806 127.97460938 15.51757812 C127.71861125 19.77870819 126.43487426 23.40150983 123.47460938 26.51757812 C117.1522807 31.16780894 111.63178776 31.08831939 103.94921875 31.03515625 C102.70123001 31.04216553 101.45324127 31.0491748 100.16743469 31.05639648 C96.7601189 31.07094307 93.35378003 31.06759367 89.94651985 31.05488014 C86.37168239 31.0447141 82.7968851 31.05415578 79.2220459 31.0604248 C73.22005772 31.06769079 67.21826678 31.05814126 61.21630859 31.0390625 C54.28892697 31.01729557 47.36201634 31.0243477 40.43464613 31.04636812 C34.47431914 31.06455224 28.51413349 31.06706581 22.55378771 31.05661345 C18.999459 31.05039496 15.44535128 31.04949716 11.89103699 31.0627594 C7.92717347 31.07651813 3.9638325 31.05741895 0 31.03515625 C-1.75512154 31.04730164 -1.75512154 31.04730164 -3.54570007 31.05969238 C-10.09717537 30.99158119 -14.19973284 30.43473258 -19.52539062 26.51757812 C-22.48565551 23.40150983 -23.7693925 19.77870819 -24.02539062 15.51757812 C-23.7693925 11.25644806 -22.48565551 7.63364642 -19.52539062 4.51757812 C-13.20306195 -0.13265269 -7.68256901 -0.05316314 0 0 Z " fill="#DD864C" transform="translate(83.525390625,390.482421875)"/>
<path d="M0 0 C-0.58066603 3.80560234 -1.66421734 6.526577 -3.6328125 9.82421875 C-4.45942383 11.22317383 -4.45942383 11.22317383 -5.30273438 12.65039062 C-5.90408203 13.65263672 -6.50542969 14.65488281 -7.125 15.6875 C-8.40958522 17.85764035 -9.69341395 20.02822863 -10.9765625 22.19921875 C-11.64204102 23.32118652 -12.30751953 24.4431543 -12.99316406 25.59912109 C-16.20471817 31.04157227 -19.35118749 36.52109103 -22.5 42 C-29.61844347 54.36164333 -36.7988589 66.68636772 -44 79 C-47.54996203 77.65669596 -50.79948684 76.08248512 -54.09765625 74.20703125 C-55.53999634 73.38948364 -55.53999634 73.38948364 -57.01147461 72.55541992 C-58.52173218 71.69267456 -58.52173218 71.69267456 -60.0625 70.8125 C-61.08931885 70.22895752 -62.1161377 69.64541504 -63.17407227 69.04418945 C-70.14398692 65.07722591 -77.09694981 61.08244904 -84 57 C-82.52325103 53.02615263 -80.65281452 49.45233977 -78.55078125 45.7734375 C-78.21507614 45.18511139 -77.87937103 44.59678528 -77.53349304 43.9906311 C-76.82313322 42.7475759 -76.11117198 41.50543463 -75.39770508 40.26416016 C-74.32907596 38.40385597 -73.26669406 36.54009445 -72.20507812 34.67578125 C-52.93821033 0.96234037 -52.93821033 0.96234037 -33.56640625 -4.34375 C-21.86904604 -6.49616677 -10.64362453 -5.51358928 0 0 Z " fill="#4D5967" transform="translate(489,32)"/>
<path d="M0 0 C0.82878662 -0.00056396 1.65757324 -0.00112793 2.51147461 -0.00170898 C10.48630426 0.13947258 17.68723205 1.78111603 24.875 5.375 C24.28586447 9.35010033 23.05454805 12.18197025 21.0234375 15.63671875 C20.42724609 16.65958984 19.83105469 17.68246094 19.21679688 18.73632812 C18.56775391 19.83396484 17.91871094 20.93160156 17.25 22.0625 C16.57021082 23.22416922 15.89118752 24.38628693 15.21289062 25.54882812 C13.80341697 27.96317446 12.39067013 30.37555922 10.97558594 32.78662109 C7.74444479 38.29818583 4.56227005 43.8379938 1.375 49.375 C0.12523053 51.54179965 -1.12477024 53.7084659 -2.375 55.875 C-3.303125 57.48375 -3.303125 57.48375 -4.25 59.125 C-6.125 62.375 -8 65.625 -9.875 68.875 C-10.49439453 69.94862793 -11.11378906 71.02225586 -11.75195312 72.12841797 C-12.9954051 74.28371311 -14.23889436 76.43898673 -15.48242188 78.59423828 C-18.36962875 83.59837674 -21.2565043 88.6027052 -24.14196777 93.60784912 C-25.15119104 95.35841241 -26.16053836 97.10890411 -27.16992188 98.859375 C-28.4266766 101.03892165 -29.68320586 103.21859832 -30.93945312 105.3984375 C-34.97916442 112.40361283 -39.0443684 119.39358507 -43.125 126.375 C-47.55480148 123.90997135 -49.35157992 122.22857074 -51.125 117.375 C-51.90536014 110.22169876 -49.32770167 105.07425394 -45.49609375 99.2734375 C-38.28822618 88.31494673 -35.58662562 79.64922686 -35.234375 66.62255859 C-35.10673468 62.83266669 -34.87348082 59.05294981 -34.625 55.26953125 C-34.25925556 49.65335476 -33.91076254 44.03688808 -33.58984375 38.41796875 C-33.51233887 37.1036084 -33.43483398 35.78924805 -33.35498047 34.43505859 C-33.19029088 31.60531353 -33.0474629 28.77525503 -32.91455078 25.94384766 C-32.84022495 24.50032265 -32.76584511 23.05680043 -32.69140625 21.61328125 C-32.63025635 20.32075439 -32.56910645 19.02822754 -32.50610352 17.6965332 C-32.15628173 14.64763804 -31.84350124 12.87486976 -30.125 10.375 C-27.90681924 8.85018054 -25.78518261 7.53499589 -23.4375 6.25 C-22.83744141 5.90324219 -22.23738281 5.55648438 -21.61914062 5.19921875 C-14.59868181 1.26293572 -7.97432775 -0.0137224 0 0 Z " fill="#CAD3E2" transform="translate(293.125,322.625)"/>
<path d="M0 0 C0.95538162 -0.00700928 1.91076324 -0.01401855 2.89509583 -0.02124023 C6.0377857 -0.03877505 9.17956736 -0.02721319 12.32226562 -0.01367188 C14.51509778 -0.01636808 16.70792876 -0.02025157 18.90075684 -0.02526855 C23.49043186 -0.03115751 28.07979491 -0.02261981 32.66943359 -0.00390625 C38.54397159 0.0188826 44.41777853 0.00575633 50.29228973 -0.01819611 C54.81855753 -0.03267018 59.34465283 -0.02804063 63.8709259 -0.01768494 C66.03660672 -0.01502212 68.20230335 -0.0182717 70.3679657 -0.02760315 C73.39807446 -0.03779497 76.42700959 -0.02223013 79.45703125 0 C80.34659012 -0.00809692 81.23614899 -0.01619385 82.15266418 -0.02453613 C88.0015632 0.05470813 91.40367242 1.17329742 96.22851562 4.51757812 C99.18878051 7.63364642 100.4725175 11.25644806 100.72851562 15.51757812 C100.4725175 19.77870819 99.18878051 23.40150983 96.22851562 26.51757812 C90.51541617 30.47754272 86.31981901 31.09762257 79.45703125 31.03515625 C78.50164963 31.04216553 77.54626801 31.0491748 76.56193542 31.05639648 C73.41924555 31.0739313 70.27746389 31.06236944 67.13476562 31.04882812 C64.94193347 31.05152433 62.74910249 31.05540782 60.55627441 31.0604248 C55.96659939 31.06631376 51.37723634 31.05777606 46.78759766 31.0390625 C40.91305966 31.01627365 35.03925272 31.02939992 29.16474152 31.05335236 C24.63847372 31.06782643 20.11237842 31.06319688 15.58610535 31.05284119 C13.42042453 31.05017837 11.2547279 31.05342795 9.08906555 31.0627594 C6.05895679 31.07295122 3.03002166 31.05738638 0 31.03515625 C-0.88955887 31.04325317 -1.77911774 31.0513501 -2.69563293 31.05969238 C-8.54453195 30.98044812 -11.94664117 29.86185883 -16.77148438 26.51757812 C-19.73174926 23.40150983 -21.01548625 19.77870819 -21.27148438 15.51757812 C-21.01548625 11.25644806 -19.73174926 7.63364642 -16.77148438 4.51757812 C-11.05838492 0.55761353 -6.86278776 -0.06246632 0 0 Z " fill="#DD864C" transform="translate(80.771484375,300.482421875)"/>
<path d="M0 0 C4.60280173 2.1802745 6.77795626 4.47734643 9 9 C9.38095093 12.2563324 9.38095093 12.2563324 9.38818359 15.98999023 C9.39344055 16.67358612 9.39869751 17.35718201 9.40411377 18.06149292 C9.41726711 20.3107622 9.40859184 22.55931784 9.3984375 24.80859375 C9.40045982 26.37891271 9.40337258 27.94923075 9.40713501 29.51954651 C9.41155222 32.80714885 9.40514777 36.09450626 9.39111328 39.38208008 C9.37403567 43.58642588 9.38385704 47.7901965 9.40183067 51.99452114 C9.41269698 55.23656 9.40920893 58.47846363 9.4014473 61.72050667 C9.39945241 63.27018363 9.40187947 64.81987304 9.40888596 66.36953545 C9.41654609 68.54022366 9.40483332 70.70999491 9.38818359 72.88061523 C9.38579681 74.11351791 9.38341003 75.34642059 9.38095093 76.61668396 C8.81527412 81.64059463 7.19970944 84.89026877 3.5 88.3125 C-0.78327835 91.20371289 -4.94920889 91.64991797 -10 91 C-14.75693974 89.40795968 -17.66310539 86.93471357 -20.13165283 82.49015808 C-22.16600637 76.65624499 -21.56834951 70.11649155 -21.53125 63.99609375 C-21.53394794 62.4286322 -21.53783287 60.86117228 -21.54284668 59.29371643 C-21.54872587 56.01799493 -21.54022921 52.74271139 -21.52148438 49.46704102 C-21.49867627 45.27829163 -21.51183882 41.09056652 -21.53577423 36.90185452 C-21.55025924 33.66836388 -21.5456143 30.43511436 -21.53526306 27.20161629 C-21.53260419 25.65752095 -21.53583588 24.11340337 -21.54518127 22.56933403 C-21.55539444 20.4081852 -21.53978374 18.24867398 -21.51757812 16.08764648 C-21.51439575 14.86077621 -21.51121338 13.63390594 -21.50793457 12.36985779 C-20.75848447 7.39768143 -18.56345296 4.21430747 -14.62109375 1.15234375 C-9.87170897 -0.93568681 -5.07751849 -0.61920957 0 0 Z " fill="#ADB5CB" transform="translate(202,0)"/>
<path d="M0 0 C4.60428618 2.18097766 6.77378089 4.47860438 9 9 C9.39440918 12.24287415 9.39440918 12.24287415 9.41992188 15.95825195 C9.42839142 16.63863525 9.43686096 17.31901855 9.44558716 18.02001953 C9.46890249 20.25963261 9.46998048 22.49855619 9.46875 24.73828125 C9.47585638 26.30381034 9.48355607 27.86933683 9.49182129 29.43486023 C9.50525458 32.71405272 9.50684078 35.99300453 9.50097656 39.2722168 C9.49509012 43.45869344 9.5256321 47.6440065 9.56609344 51.83025837 C9.59204595 55.06381874 9.59484093 58.29710203 9.59120178 61.53075218 C9.59288689 63.0732229 9.60247042 64.61570727 9.62034607 66.15807533 C9.78458594 82.08460717 9.78458594 82.08460717 4 88 C0.21813975 90.68932285 -3.2323531 91.6115897 -7.91015625 91.4140625 C-11.83322692 90.63678121 -15.11936275 88.74650558 -18 86 C-20.69332271 81.47784207 -21.38105199 78.13216466 -21.40405273 72.89648438 C-21.41091599 72.21274246 -21.41777924 71.52900055 -21.42485046 70.82453918 C-21.44304358 68.58072722 -21.43929253 66.33761936 -21.43359375 64.09375 C-21.43815871 62.52485936 -21.44346522 60.95597072 -21.44947815 59.38708496 C-21.45839415 56.10546727 -21.45600295 52.82409315 -21.44604492 49.54248047 C-21.43454853 45.3458922 -21.45478389 41.15014456 -21.48396206 36.95366669 C-21.50234297 33.71590881 -21.50202804 30.47835179 -21.49632454 27.24055481 C-21.4961716 25.69365763 -21.50219331 24.1467466 -21.51461601 22.59989929 C-21.52956363 20.43390724 -21.51882446 18.26946067 -21.50170898 16.10351562 C-21.50154282 14.87362915 -21.50137665 13.64374268 -21.50120544 12.37658691 C-20.76204715 7.39692786 -18.56751117 4.21745942 -14.62109375 1.15234375 C-9.87170897 -0.93568681 -5.07751849 -0.61920957 0 0 Z " fill="#ACB4CB" transform="translate(323,0)"/>
<path d="M0 0 C4.60428618 2.18097766 6.77378089 4.47860438 9 9 C9.39440918 12.24287415 9.39440918 12.24287415 9.41992188 15.95825195 C9.42839142 16.63863525 9.43686096 17.31901855 9.44558716 18.02001953 C9.46890249 20.25963261 9.46998048 22.49855619 9.46875 24.73828125 C9.47585638 26.30381034 9.48355607 27.86933683 9.49182129 29.43486023 C9.50525458 32.71405272 9.50684078 35.99300453 9.50097656 39.2722168 C9.49509012 43.45869344 9.5256321 47.6440065 9.56609344 51.83025837 C9.59204595 55.06381874 9.59484093 58.29710203 9.59120178 61.53075218 C9.59288689 63.0732229 9.60247042 64.61570727 9.62034607 66.15807533 C9.78458594 82.08460717 9.78458594 82.08460717 4 88 C0.21813975 90.68932285 -3.2323531 91.6115897 -7.91015625 91.4140625 C-11.83322692 90.63678121 -15.11936275 88.74650558 -18 86 C-20.69332271 81.47784207 -21.38105199 78.13216466 -21.40405273 72.89648438 C-21.41091599 72.21274246 -21.41777924 71.52900055 -21.42485046 70.82453918 C-21.44304358 68.58072722 -21.43929253 66.33761936 -21.43359375 64.09375 C-21.43815871 62.52485936 -21.44346522 60.95597072 -21.44947815 59.38708496 C-21.45839415 56.10546727 -21.45600295 52.82409315 -21.44604492 49.54248047 C-21.43454853 45.3458922 -21.45478389 41.15014456 -21.48396206 36.95366669 C-21.50234297 33.71590881 -21.50202804 30.47835179 -21.49632454 27.24055481 C-21.4961716 25.69365763 -21.50219331 24.1467466 -21.51461601 22.59989929 C-21.52956363 20.43390724 -21.51882446 18.26946067 -21.50170898 16.10351562 C-21.50154282 14.87362915 -21.50137665 13.64374268 -21.50120544 12.37658691 C-20.76204715 7.39692786 -18.56751117 4.21745942 -14.62109375 1.15234375 C-9.87170897 -0.93568681 -5.07751849 -0.61920957 0 0 Z " fill="#ACB4CB" transform="translate(263,0)"/>
<path d="M0 0 C4.60428618 2.18097766 6.77378089 4.47860438 9 9 C9.39440918 12.24287415 9.39440918 12.24287415 9.41992188 15.95825195 C9.42839142 16.63863525 9.43686096 17.31901855 9.44558716 18.02001953 C9.46890249 20.25963261 9.46998048 22.49855619 9.46875 24.73828125 C9.47585638 26.30381034 9.48355607 27.86933683 9.49182129 29.43486023 C9.50525458 32.71405272 9.50684078 35.99300453 9.50097656 39.2722168 C9.49509012 43.45869344 9.5256321 47.6440065 9.56609344 51.83025837 C9.59204595 55.06381874 9.59484093 58.29710203 9.59120178 61.53075218 C9.59288689 63.0732229 9.60247042 64.61570727 9.62034607 66.15807533 C9.78458594 82.08460717 9.78458594 82.08460717 4 88 C0.21813975 90.68932285 -3.2323531 91.6115897 -7.91015625 91.4140625 C-11.83322692 90.63678121 -15.11936275 88.74650558 -18 86 C-20.69332271 81.47784207 -21.38105199 78.13216466 -21.40405273 72.89648438 C-21.41091599 72.21274246 -21.41777924 71.52900055 -21.42485046 70.82453918 C-21.44304358 68.58072722 -21.43929253 66.33761936 -21.43359375 64.09375 C-21.43815871 62.52485936 -21.44346522 60.95597072 -21.44947815 59.38708496 C-21.45839415 56.10546727 -21.45600295 52.82409315 -21.44604492 49.54248047 C-21.43454853 45.3458922 -21.45478389 41.15014456 -21.48396206 36.95366669 C-21.50234297 33.71590881 -21.50202804 30.47835179 -21.49632454 27.24055481 C-21.4961716 25.69365763 -21.50219331 24.1467466 -21.51461601 22.59989929 C-21.52956363 20.43390724 -21.51882446 18.26946067 -21.50170898 16.10351562 C-21.50154282 14.87362915 -21.50137665 13.64374268 -21.50120544 12.37658691 C-20.76204715 7.39692786 -18.56751117 4.21745942 -14.62109375 1.15234375 C-9.87170897 -0.93568681 -5.07751849 -0.61920957 0 0 Z " fill="#C9D3E3" transform="translate(142,0)"/>
<path d="M0 0 C4.60428618 2.18097766 6.77378089 4.47860438 9 9 C9.39440918 12.24287415 9.39440918 12.24287415 9.41992188 15.95825195 C9.42839142 16.63863525 9.43686096 17.31901855 9.44558716 18.02001953 C9.46890249 20.25963261 9.46998048 22.49855619 9.46875 24.73828125 C9.47585638 26.30381034 9.48355607 27.86933683 9.49182129 29.43486023 C9.50525458 32.71405272 9.50684078 35.99300453 9.50097656 39.2722168 C9.49509012 43.45869344 9.5256321 47.6440065 9.56609344 51.83025837 C9.59204595 55.06381874 9.59484093 58.29710203 9.59120178 61.53075218 C9.59288689 63.0732229 9.60247042 64.61570727 9.62034607 66.15807533 C9.78458594 82.08460717 9.78458594 82.08460717 4 88 C0.21813975 90.68932285 -3.2323531 91.6115897 -7.91015625 91.4140625 C-11.83322692 90.63678121 -15.11936275 88.74650558 -18 86 C-20.69332271 81.47784207 -21.38105199 78.13216466 -21.40405273 72.89648438 C-21.41091599 72.21274246 -21.41777924 71.52900055 -21.42485046 70.82453918 C-21.44304358 68.58072722 -21.43929253 66.33761936 -21.43359375 64.09375 C-21.43815871 62.52485936 -21.44346522 60.95597072 -21.44947815 59.38708496 C-21.45839415 56.10546727 -21.45600295 52.82409315 -21.44604492 49.54248047 C-21.43454853 45.3458922 -21.45478389 41.15014456 -21.48396206 36.95366669 C-21.50234297 33.71590881 -21.50202804 30.47835179 -21.49632454 27.24055481 C-21.4961716 25.69365763 -21.50219331 24.1467466 -21.51461601 22.59989929 C-21.52956363 20.43390724 -21.51882446 18.26946067 -21.50170898 16.10351562 C-21.50154282 14.87362915 -21.50137665 13.64374268 -21.50120544 12.37658691 C-20.76204715 7.39692786 -18.56751117 4.21745942 -14.62109375 1.15234375 C-9.87170897 -0.93568681 -5.07751849 -0.61920957 0 0 Z " fill="#C9D3E3" transform="translate(81,0)"/>
<path d="M0 0 C1.5202255 -0.0026984 3.04044931 -0.00658371 4.56066895 -0.01159668 C7.73804244 -0.01747546 10.91496439 -0.00898179 14.09228516 0.00976562 C18.15091142 0.03255489 22.20847945 0.01942299 26.26706696 -0.00452423 C29.40366489 -0.01902655 32.5400148 -0.0143561 35.67662048 -0.00401306 C37.17244087 -0.00135798 38.66828429 -0.00457238 40.16407776 -0.01393127 C54.60975974 -0.08449509 54.60975974 -0.08449509 60.46875 4.53125 C63.42901488 7.6473183 64.71275188 11.27011994 64.96875 15.53125 C64.71275188 19.79238006 63.42901488 23.4151817 60.46875 26.53125 C53.70730044 31.85795754 46.14641342 31.11386161 37.9375 31.0625 C36.4172745 31.0651984 34.89705069 31.06908371 33.37683105 31.07409668 C30.19945756 31.07997546 27.02253561 31.07148179 23.84521484 31.05273438 C19.78658858 31.02994511 15.72902055 31.04307701 11.67043304 31.06702423 C8.53383511 31.08152655 5.3974852 31.0768561 2.26087952 31.06651306 C0.76505913 31.06385798 -0.73078429 31.06707238 -2.22657776 31.07643127 C-16.67225974 31.14699509 -16.67225974 31.14699509 -22.53125 26.53125 C-25.49151488 23.4151817 -26.77525188 19.79238006 -27.03125 15.53125 C-26.77525188 11.27011994 -25.49151488 7.6473183 -22.53125 4.53125 C-15.76980044 -0.79545754 -8.20891342 -0.05136161 0 0 Z " fill="#DD864C" transform="translate(86.53125,210.46875)"/>
<path d="M0 0 C0 29.7 0 59.4 0 90 C-7 90 -7 90 -9.75 88.375 C-14.23465659 83.64119583 -15.37582894 79.32109243 -15.40405273 72.89648438 C-15.41091599 72.21274246 -15.41777924 71.52900055 -15.42485046 70.82453918 C-15.44304358 68.58072722 -15.43929253 66.33761936 -15.43359375 64.09375 C-15.43815871 62.52485936 -15.44346522 60.95597072 -15.44947815 59.38708496 C-15.45839415 56.10546727 -15.45600295 52.82409315 -15.44604492 49.54248047 C-15.43454853 45.3458922 -15.45478389 41.15014456 -15.48396206 36.95366669 C-15.50234297 33.71590881 -15.50202804 30.47835179 -15.49632454 27.24055481 C-15.4961716 25.69365763 -15.50219331 24.1467466 -15.51461601 22.59989929 C-15.52956363 20.43390724 -15.51882446 18.26946067 -15.50170898 16.10351562 C-15.50154282 14.87362915 -15.50137665 13.64374268 -15.50120544 12.37658691 C-14.76103976 7.39014116 -12.54894512 4.22285141 -8.625 1.125 C-6 0 -6 0 0 0 Z " fill="#C9D3E3" transform="translate(196,0)"/>
<path d="M0 0 C8.28699552 1.1838565 8.28699552 1.1838565 12 5 C14.95666951 9.48598132 15.90140795 13.70422829 15 19 C13.53171647 23.30871297 11.38108143 26.05877267 7.5 28.4375 C4 30 4 30 0 30 C0 20.1 0 10.2 0 0 Z " fill="#D36936" transform="translate(196,391)"/>
</svg>
